<svg xmlns="http://www.w3.org/2000/svg" xmlns:xlink="http://www.w3.org/1999/xlink" width="1240" height="851" viewBox="0 0 1240 851">
  <defs>
    <clipPath id="clip-path">
      <rect id="Rectángulo_401216" data-name="Rectángulo 401216" width="21.329" height="18.792" fill="none" stroke="#56681c" stroke-width="1"/>
    </clipPath>
  </defs>
  <g id="Grupo_1112313" data-name="Grupo 1112313" transform="translate(-180.333 -422)">
    <g id="Grupo_1112310" data-name="Grupo 1112310">
      <rect id="Rectángulo_388651" data-name="Rectángulo 388651" width="1240" height="851" rx="20" transform="translate(180.333 422)" fill="#fdfef9"/>
      <g id="Grupo_1112309" data-name="Grupo 1112309">
        <g id="Grupo_1101910" data-name="Grupo 1101910" transform="translate(-54.799 -80.785)">
          <rect id="Rectángulo_34091" data-name="Rectángulo 34091" width="657.296" height="58.628" rx="11" transform="translate(529.799 568.785)" fill="#aed139"/>
          <text id="Manejo_tecnológico_del_cultivo_de_aguacate_cosecha_y_poscosecha" data-name="Manejo tecnológico del cultivo de aguacate, cosecha y poscosecha" transform="translate(858.447 604.413)" fill="#12263f" font-size="20" font-family="Roboto-Black, Roboto" font-weight="800"><tspan x="-302.437" y="0">Manejo tecnológico del cultivo de aguacate, cosecha y poscosecha</tspan></text>
        </g>
        <rect id="Rectángulo_401215" data-name="Rectángulo 401215" width="295" height="72.401" rx="11" transform="translate(380 636.918)" fill="#fec5aa"/>
        <text id="La_siembra_y_el_manejo_del_cultivo_de_aguacate_" data-name="La siembra y el manejo del cultivo
de aguacate
" transform="translate(515.648 667.48)" fill="#12263f" font-size="16" font-family="Roboto-Bold, Roboto" font-weight="700"><tspan x="-121.789" y="0">La siembra y el manejo del cultivo</tspan><tspan x="-43.934" y="24">de aguacate</tspan><tspan x="0" y="48"></tspan></text>
        <g id="Grupo_1101909" data-name="Grupo 1101909" transform="translate(-54.503 -124.99)">
          <g id="Grupo_1099073" data-name="Grupo 1099073" transform="translate(860.347 674.695)">
            <path id="Trazado_873496" data-name="Trazado 873496" d="M-11801-8646v30.42" transform="translate(11801 8646)" fill="none" stroke="#56681c" stroke-width="2"/>
          </g>
          <g id="Grupo_1099076" data-name="Grupo 1099076" transform="translate(559.001 707.564)">
            <path id="Trazado_873496-2" data-name="Trazado 873496" d="M-11801-8646v42.8" transform="translate(11811.664 8643.538)" fill="none" stroke="#56681c" stroke-width="2"/>
            <g id="Grupo_1099075" data-name="Grupo 1099075" transform="translate(0 24.551)">
              <g id="Grupo_1099074" data-name="Grupo 1099074" clip-path="url(#clip-path)">
                <path id="Trazado_873497" data-name="Trazado 873497" d="M21.182.857A21.249,21.249,0,0,0,10.848,19.1,21.248,21.248,0,0,0,.514.857" transform="translate(-0.184 -0.306)" fill="none" stroke="#56681c" stroke-miterlimit="10" stroke-width="2"/>
              </g>
            </g>
          </g>
          <g id="Grupo_1099079" data-name="Grupo 1099079" transform="translate(959.503 705.115)">
            <path id="Trazado_873496-3" data-name="Trazado 873496" d="M-11801-8646v40.334" transform="translate(11811.664 8646.001)" fill="none" stroke="#56681c" stroke-width="2"/>
            <g id="Grupo_1099075-2" data-name="Grupo 1099075" transform="translate(0 24.551)">
              <g id="Grupo_1099074-2" data-name="Grupo 1099074" clip-path="url(#clip-path)">
                <path id="Trazado_873497-2" data-name="Trazado 873497" d="M21.182.857A21.249,21.249,0,0,0,10.848,19.1,21.248,21.248,0,0,0,.514.857" transform="translate(-0.184 -0.306)" fill="none" stroke="#56681c" stroke-miterlimit="10" stroke-width="2"/>
              </g>
            </g>
          </g>
          <path id="Trazado_873498" data-name="Trazado 873498" d="M-12230.665-8584.328h400.5" transform="translate(12800.332 9290.428)" fill="none" stroke="#56681c" stroke-width="2"/>
        </g>
        <text id="_" data-name="





" transform="translate(554.112 1031.033)" fill="#12263f" font-size="16" font-family="Roboto-Regular, Roboto"><tspan x="0" y="0"></tspan><tspan x="0" y="24"></tspan><tspan x="0" y="48"></tspan><tspan x="0" y="72"></tspan><tspan x="0" y="96"></tspan><tspan x="0" y="120"></tspan><tspan x="0" y="144"></tspan></text>
        <rect id="Rectángulo_402502" data-name="Rectángulo 402502" width="319.646" height="76.779" rx="11" transform="translate(749.134 633.918)" fill="#fec5aa"/>
        <text id="Cosecha_y_poscosecha_del_aguacate_" data-name="Cosecha y poscosecha del aguacate
" transform="translate(908.957 675.697)" fill="#12263f" font-size="16" font-family="Roboto-Bold, Roboto" font-weight="700"><tspan x="-130.391" y="0">Cosecha y poscosecha del aguacate</tspan><tspan x="0" y="24"></tspan></text>
        <g id="Grupo_1102276" data-name="Grupo 1102276" transform="translate(545.031 582.574)">
          <path id="Trazado_873496-4" data-name="Trazado 873496" d="M-11801-8646v488.727" transform="translate(11671.148 8772.001)" fill="none" stroke="#56681c" stroke-width="2"/>
        </g>
        <g id="Grupo_1102277" data-name="Grupo 1102277" transform="translate(436.23 740.846) rotate(90)">
          <path id="Trazado_873496-5" data-name="Trazado 873496" d="M-11801-8646v21.051" transform="translate(11801 8646.001)" fill="none" stroke="#56681c" stroke-width="2"/>
        </g>
        <rect id="Rectángulo_403026" data-name="Rectángulo 403026" width="188.949" height="43.75" rx="9" transform="translate(436.23 719.48)" fill="#e6edf1"/>
        <g id="Grupo_1102278" data-name="Grupo 1102278" transform="translate(436.23 797.846) rotate(90)">
          <path id="Trazado_873496-6" data-name="Trazado 873496" d="M-11801-8646v21.051" transform="translate(11801 8646.001)" fill="none" stroke="#56681c" stroke-width="2"/>
        </g>
        <rect id="Rectángulo_403027" data-name="Rectángulo 403027" width="188.949" height="43.75" rx="9" transform="translate(436.23 776.48)" fill="#e6edf1"/>
        <g id="Grupo_1102279" data-name="Grupo 1102279" transform="translate(436.23 854.846) rotate(90)">
          <path id="Trazado_873496-7" data-name="Trazado 873496" d="M-11801-8646v21.051" transform="translate(11801 8646.001)" fill="none" stroke="#56681c" stroke-width="2"/>
        </g>
        <rect id="Rectángulo_403028" data-name="Rectángulo 403028" width="188.949" height="43.75" rx="9" transform="translate(436.23 833.48)" fill="#e6edf1"/>
        <g id="Grupo_1102280" data-name="Grupo 1102280" transform="translate(436.23 911.846) rotate(90)">
          <path id="Trazado_873496-8" data-name="Trazado 873496" d="M-11801-8646v21.051" transform="translate(11801 8646.001)" fill="none" stroke="#56681c" stroke-width="2"/>
        </g>
        <rect id="Rectángulo_403029" data-name="Rectángulo 403029" width="188.949" height="43.75" rx="9" transform="translate(436.23 890.48)" fill="#e6edf1"/>
        <g id="Grupo_1102281" data-name="Grupo 1102281" transform="translate(436.23 968.846) rotate(90)">
          <path id="Trazado_873496-9" data-name="Trazado 873496" d="M-11801-8646v21.051" transform="translate(11801 8646.001)" fill="none" stroke="#56681c" stroke-width="2"/>
        </g>
        <rect id="Rectángulo_403030" data-name="Rectángulo 403030" width="188.949" height="43.75" rx="9" transform="translate(436.23 947.48)" fill="#e1e6e8"/>
        <g id="Grupo_1102282" data-name="Grupo 1102282" transform="translate(436.23 1050.846) rotate(90)">
          <path id="Trazado_873496-10" data-name="Trazado 873496" d="M-11801-8646v21.051" transform="translate(11801 8646.001)" fill="none" stroke="#56681c" stroke-width="2"/>
        </g>
        <rect id="Rectángulo_403031" data-name="Rectángulo 403031" width="188.949" height="97.75" rx="9" transform="translate(436.23 1004.48)" fill="#e6edf1"/>
        <text id="Selección_del_terreno_" data-name="Selección del terreno
" transform="translate(452.148 730.48)" font-size="16" font-family="Roboto-Regular, Roboto"><tspan x="0" y="15">Selección del terreno</tspan></text>
        <text id="Trazado_del_lote_" data-name="Trazado del lote
" transform="translate(452.148 787.846)" font-size="16" font-family="Roboto-Regular, Roboto"><tspan x="0" y="15">Trazado del lote</tspan></text>
        <text id="Distancia_de_siembra_" data-name="Distancia de siembra
" transform="translate(452.148 843.846)" font-size="16" font-family="Roboto-Regular, Roboto"><tspan x="0" y="15">Distancia de siembra</tspan></text>
        <text id="Labores_culturales_" data-name="Labores culturales
" transform="translate(452.148 899.526)" font-size="16" font-family="Roboto-Regular, Roboto"><tspan x="0" y="15">Labores culturales</tspan></text>
        <text id="Fertilización_" data-name="Fertilización
" transform="translate(452.148 956.892)" font-size="16" font-family="Roboto-Regular, Roboto"><tspan x="0" y="15">Fertilización</tspan></text>
        <text id="Manejo_Integrado_de_Plagas_y_Enfermedades_" data-name="Manejo Integrado de Plagas y Enfermedades 
" transform="translate(452.148 1016.403)" font-size="16" font-family="Roboto-Regular, Roboto"><tspan x="0" y="15">Manejo Integrado de </tspan><tspan x="0" y="39">Plagas y </tspan><tspan x="0" y="63">Enfermedades </tspan></text>
        <rect id="Rectángulo_403032" data-name="Rectángulo 403032" width="188.949" height="43.75" rx="9" transform="translate(436.23 1119.346)" fill="#e6edf1"/>
        <text id="Enfermedades_" data-name="Enfermedades
" transform="translate(452.148 1128.758)" font-size="16" font-family="Roboto-Regular, Roboto"><tspan x="0" y="15">Enfermedades</tspan></text>
        <g id="Grupo_1102283" data-name="Grupo 1102283" transform="translate(436.23 1141.221) rotate(90)">
          <path id="Trazado_873496-11" data-name="Trazado 873496" d="M-11801-8646v21.051" transform="translate(11801 8646.001)" fill="none" stroke="#56681c" stroke-width="2"/>
        </g>
        <g id="Grupo_1102284" data-name="Grupo 1102284" transform="translate(436.23 1196.268) rotate(90)">
          <path id="Trazado_873496-12" data-name="Trazado 873496" d="M-11801-8646v21.051" transform="translate(11801 8646.001)" fill="none" stroke="#56681c" stroke-width="2"/>
        </g>
        <rect id="Rectángulo_403034" data-name="Rectángulo 403034" width="188.949" height="43.75" rx="9" transform="translate(436.23 1174.393)" fill="#e6edf1"/>
        <text id="Manejo_de_arvenses_" data-name="Manejo de arvenses 

" transform="translate(452.148 1186.268)" font-size="16" font-family="Roboto-Regular, Roboto"><tspan x="0" y="15">Manejo de arvenses </tspan></text>
        <rect id="Rectángulo_403035" data-name="Rectángulo 403035" width="188.949" height="43.75" rx="9" transform="translate(698.508 746.73)" fill="#e6edf1"/>
        <rect id="Rectángulo_403036" data-name="Rectángulo 403036" width="188.949" height="43.75" rx="9" transform="translate(907.508 746.73)" fill="#e6edf1"/>
        <text id="Cosecha_" data-name="Cosecha
" transform="translate(753.908 757.73)" font-size="16" font-family="Roboto-Regular, Roboto"><tspan x="0" y="15">Cosecha</tspan></text>
        <text id="Poscosecha_" data-name="Poscosecha
" transform="translate(953.965 758.096)" font-size="16" font-family="Roboto-Regular, Roboto"><tspan x="0" y="15">Poscosecha</tspan></text>
        <g id="Grupo_1102285" data-name="Grupo 1102285" transform="translate(1127.983 857.549) rotate(90)">
          <path id="Trazado_873496-13" data-name="Trazado 873496" d="M-11801-8646v209" transform="translate(11671.148 8772.001)" fill="none" stroke="#56681c" stroke-width="2"/>
        </g>
        <g id="Grupo_1102286" data-name="Grupo 1102286" transform="translate(664.131 872.73) rotate(180)">
          <path id="Trazado_873496-14" data-name="Trazado 873496" d="M-11801-8646v20.032" transform="translate(11671.148 8772.001)" fill="none" stroke="#56681c" stroke-width="2"/>
        </g>
        <g id="Grupo_1102287" data-name="Grupo 1102287" transform="translate(871.131 872.73) rotate(180)">
          <path id="Trazado_873496-15" data-name="Trazado 873496" d="M-11801-8646v20.032" transform="translate(11671.148 8772.001)" fill="none" stroke="#56681c" stroke-width="2"/>
        </g>
        <g id="Grupo_1102288" data-name="Grupo 1102288" transform="translate(767.631 853.699) rotate(180)">
          <path id="Trazado_873496-16" data-name="Trazado 873496" d="M-11801-8646v17" transform="translate(11671.148 8772.001)" fill="none" stroke="#56681c" stroke-width="2"/>
        </g>
        <rect id="Rectángulo_403037" data-name="Rectángulo 403037" width="143.492" height="43.75" rx="9" transform="translate(743.965 808.305)" fill="#e6edf1"/>
        <text id="Recolección_" data-name="Recolección

" transform="translate(773.908 819.305)" font-size="16" font-family="Roboto-Regular, Roboto"><tspan x="0" y="15">Recolección</tspan></text>
        <rect id="Rectángulo_403038" data-name="Rectángulo 403038" width="143.492" height="43.75" rx="9" transform="translate(907.508 808.305)" fill="#e6edf1"/>
        <text id="Lavado_" data-name="Lavado
" transform="translate(953.965 819.305)" font-size="16" font-family="Roboto-Regular, Roboto"><tspan x="0" y="15">Lavado</tspan></text>
        <rect id="Rectángulo_403039" data-name="Rectángulo 403039" width="143.492" height="43.75" rx="9" transform="translate(1076.508 808.305)" fill="#e6edf1"/>
        <text id="Selección_" data-name="Selección
" transform="translate(1107.297 819.305)" font-size="16" font-family="Roboto-Regular, Roboto"><tspan x="0" y="15">Selección</tspan></text>
        <rect id="Rectángulo_403040" data-name="Rectángulo 403040" width="143.492" height="43.75" rx="9" transform="translate(907.508 862.086)" fill="#e6edf1"/>
        <text id="Clasificación_" data-name="Clasificación
" transform="translate(933.965 873.086)" font-size="16" font-family="Roboto-Regular, Roboto"><tspan x="0" y="15">Clasificación</tspan></text>
        <rect id="Rectángulo_403041" data-name="Rectángulo 403041" width="143.492" height="43.75" rx="9" transform="translate(1076.508 862.086)" fill="#e6edf1"/>
        <text id="Embalaje_" data-name="Embalaje
" transform="translate(1106.451 873.086)" font-size="16" font-family="Roboto-Regular, Roboto"><tspan x="0" y="15">Embalaje</tspan></text>
        <rect id="Rectángulo_403042" data-name="Rectángulo 403042" width="143.492" height="43.75" rx="9" transform="translate(907.508 915.869)" fill="#e6edf1"/>
        <text id="Transporte_" data-name="Transporte
" transform="translate(937.451 926.869)" font-size="16" font-family="Roboto-Regular, Roboto"><tspan x="0" y="15">Transporte</tspan></text>
        <rect id="Rectángulo_403043" data-name="Rectángulo 403043" width="143.492" height="43.75" rx="9" transform="translate(1076.508 915.869)" fill="#e6edf1"/>
        <text id="Almacenamiento_" data-name="Almacenamiento
" transform="translate(1087.246 926.869)" font-size="16" font-family="Roboto-Regular, Roboto"><tspan x="0" y="15">Almacenamiento</tspan></text>
        <g id="Grupo_1102289" data-name="Grupo 1102289" transform="translate(924.999 807.893) rotate(-90)">
          <path id="Trazado_873496-17" data-name="Trazado 873496" d="M-11801-8646v25.508" transform="translate(11671.148 8772.001)" fill="none" stroke="#56681c" stroke-width="2"/>
        </g>
        <g id="Grupo_1102290" data-name="Grupo 1102290" transform="translate(924.999 755.109) rotate(-90)">
          <path id="Trazado_873496-18" data-name="Trazado 873496" d="M-11801-8646v25.508" transform="translate(11671.148 8772.001)" fill="none" stroke="#56681c" stroke-width="2"/>
        </g>
        <g id="Grupo_1102291" data-name="Grupo 1102291" transform="translate(924.999 701.328) rotate(-90)">
          <path id="Trazado_873496-19" data-name="Trazado 873496" d="M-11801-8646v25.508" transform="translate(11671.148 8772.001)" fill="none" stroke="#56681c" stroke-width="2"/>
        </g>
        <g id="Grupo_1102292" data-name="Grupo 1102292" transform="translate(933.902 1063.744) rotate(180)">
          <path id="Trazado_873496-20" data-name="Trazado 873496" d="M-11801-8646v147.262" transform="translate(11671.148 8772.001)" fill="none" stroke="#56681c" stroke-width="2"/>
        </g>
        <g id="Grupo_1102293" data-name="Grupo 1102293" transform="translate(597.964 700.328) rotate(-90)">
          <path id="Trazado_873496-21" data-name="Trazado 873496" d="M-11801-8646v20" transform="translate(11671.148 8772.001)" fill="none" stroke="#56681c" stroke-width="2"/>
        </g>
        <g id="Grupo_1102294" data-name="Grupo 1102294" transform="translate(594.113 957.18) rotate(180)">
          <path id="Trazado_873496-22" data-name="Trazado 873496" d="M-11801-8646v40.7" transform="translate(11671.148 8772.001)" fill="none" stroke="#56681c" stroke-width="2"/>
        </g>
      </g>
    </g>
  </g>
</svg>
